<?xml version="1.0" encoding="UTF-8"?>
<svg width="787px" height="785px" viewBox="0 0 787 785" version="1.1" xmlns="http://www.w3.org/2000/svg" xmlns:xlink="http://www.w3.org/1999/xlink">
    <!-- Generator: Sketch 52.6 (67491) - http://www.bohemiancoding.com/sketch -->
    <title>logo</title>
    <desc>Created with Sketch.</desc>
    <defs>
        <circle id="path-1" cx="392.5" cy="392.5" r="392.5"></circle>
    </defs>
    <g id="Page-1" stroke="none" stroke-width="1" fill="none" fill-rule="evenodd">
        <g id="Artboard" transform="translate(-6.000000, -15.000000)">
            <g id="logo" transform="translate(7.000000, 16.000000)">
                <mask id="mask-2" fill="white">
                    <use xlink:href="#path-1"></use>
                </mask>
                <use id="Oval" stroke="#979797" fill="#71E6FF" xlink:href="#path-1"></use>
                <g id="glace" mask="url(#mask-2)">
                    <g transform="translate(86.000000, 0.000000)">
                        <path d="M96.9086119,528.079906 C63.4953845,528.079906 36.4086119,555.166678 36.4086119,588.579906 C36.4086119,621.993133 63.4953845,649.079906 96.9086119,649.079906 L490.908612,649.079906 C524.321839,649.079906 551.408612,621.993133 551.408612,588.579906 C551.408612,555.166678 524.321839,528.079906 490.908612,528.079906 L96.9086119,528.079906 Z" id="Rectangle-Copy-2" stroke="#EAC4E6" stroke-width="10" fill="#FFDEFB" transform="translate(293.908612, 588.579906) rotate(6.000000) translate(-293.908612, -588.579906) "></path>
                        <path d="M346.423993,58.38187 L324.194465,50.949557 C343.640135,71.7563828 353.478967,93.3163198 353.478967,115.601563 C353.478967,130.938996 345.527982,140.101559 331.324154,143.491793 C321.127907,145.92548 309.327383,145.572034 289.28737,143.225091 C287.676606,143.03645 286.134938,142.851306 283.688278,142.554244 C267.790389,140.623997 261.882097,140.054688 255.018029,140.054688 C234.46669,140.054688 215.432804,156.315697 198.085289,189.785644 C178.749577,236.311609 187.171621,269.592631 223.346396,291.455161 C260.246268,313.755909 310.355605,313.820729 373.928711,291.223776 C414.753938,264.432186 430.943563,225.519074 422.750958,173.575857 C414.484088,121.16178 389.102839,82.8993462 346.423988,58.3818668 Z" id="Path-3" stroke="#EAC4E6" stroke-width="10" fill="#FFDEFB" transform="translate(306.405632, 176.087891) rotate(-24.000000) translate(-306.405632, -176.087891) "></path>
                        <path d="M186.72325,239.849751 C158.83287,239.849751 136.22325,262.459371 136.22325,290.349751 C136.22325,318.240131 158.83287,340.849751 186.72325,340.849751 L470.72325,340.849751 C498.61363,340.849751 521.22325,318.240131 521.22325,290.349751 C521.22325,262.459371 498.61363,239.849751 470.72325,239.849751 L186.72325,239.849751 Z" id="Rectangle-Copy-2" stroke="#E9E9E9" stroke-width="10" fill="#FAFAFA" transform="translate(328.723250, 290.349751) rotate(12.000000) translate(-328.723250, -290.349751) "></path>
                        <path d="M335.078125,76.1171875 C366.322917,91.8567708 391.546875,118.903646 410.75,157.257812 C439.554688,214.789062 384.015625,237.28125 372.914063,181.179688 C365.513021,143.778646 352.901042,108.757813 335.078125,76.1171875 Z" id="Path-4" stroke="none" fill="#FFF7FE"></path>
                        <path d="M127.042307,332.508192 C95.2859339,332.508192 69.5423071,358.251819 69.5423071,390.008192 C69.5423071,421.764565 95.2859339,447.508192 127.042307,447.508192 L501.042307,447.508192 C532.79868,447.508192 558.542307,421.764565 558.542307,390.008192 C558.542307,358.251819 532.79868,332.508192 501.042307,332.508192 L127.042307,332.508192 Z" id="Rectangle-Copy" stroke="#EAC4E6" stroke-width="10" fill="#FFDEFB" transform="translate(314.042307, 390.008192) rotate(12.000000) translate(-314.042307, -390.008192) "></path>
                        <path d="M72.8575034,435.135367 C39.444276,435.135367 12.3575034,462.22214 12.3575034,495.635367 C12.3575034,529.048595 39.444276,556.135367 72.8575034,556.135367 L514.857503,556.135367 C548.270731,556.135367 575.357503,529.048595 575.357503,495.635367 C575.357503,462.22214 548.270731,435.135367 514.857503,435.135367 L72.8575034,435.135367 Z" id="Rectangle" stroke="#E9E9E9" stroke-width="10" fill="#FAFAFA" transform="translate(293.857503, 495.635367) rotate(12.000000) translate(-293.857503, -495.635367) "></path>
                        <path d="M298.265625,337.007812 L510.78125,381 C536.03125,391.109375 542.34375,404.848958 529.71875,422.21875 C510.78125,448.273437 515.15625,409.320312 391.25,367.742187 C308.645833,340.023437 277.651042,329.778646 298.265625,337.007812 Z" id="Path-5" stroke="none" fill="#FFF7FE"></path>
                        <path d="M302.162994,241.633491 L479.831603,278.284354 C500.941262,286.706698 506.218677,298.153448 495.663848,312.624606 C479.831603,334.331341 483.489218,301.878632 379.900358,267.238978 C310.841119,244.145874 284.928664,235.610712 302.162994,241.633491 Z" id="Path-5-Copy-2" stroke="none" fill="#FFFFFF"></path>
                        <path d="M274.303584,441.382134 L522.537401,492.715646 C552.03125,504.512052 559.404712,520.544468 544.657788,540.812894 C522.537401,571.215534 527.647721,525.761993 382.916145,477.245397 C286.428428,444.901001 250.224241,432.94658 274.303584,441.382134 Z" id="Path-5-Copy" stroke="none" fill="#FFFFFF"></path>
                    </g>
                </g>
                <g id="cone" mask="url(#mask-2)">
                    <g transform="translate(103.000000, 573.000000)">
                        <path d="" id="Path" stroke="#979797" stroke-width="1" fill="none"></path>
                        <rect id="Rectangle" stroke="#F2E1AD" stroke-width="9" fill="#FFEDB7" fill-rule="evenodd" x="3.5" y="5.5" width="572" height="63" rx="8"></rect>
                        <path d="M289,62.2987527 L522.173772,787.5 L55.8262279,787.5 L289,62.2987527 Z" id="Triangle" stroke="#F2E1AB" stroke-width="9" fill="#FFEDB7" fill-rule="evenodd" transform="translate(289.000000, 430.000000) scale(1, -1) translate(-289.000000, -430.000000) "></path>
                        <path d="M30.5,24 L550.614788,24" id="Line" stroke="#F4E3AF" stroke-width="7" fill="none" stroke-linecap="round"></path>
                        <path d="M157.149684,5.84765625 C146.832979,45.6315104 253.789275,65.5234375 478.018571,65.5234375 C702.247867,65.5234375 543.738152,65.5234375 2.48942786,65.5234375 C-3.79277363,32.5543751 1.89698977,12.662448 19.5587181,5.84765625 C37.2204464,-0.967135479 83.0841017,-0.967135479 157.149684,5.84765625 Z" id="Path-6" stroke="none" fill="#F4E3AF" fill-rule="evenodd"></path>
                        <path d="M89.59375,87.1640625 C214.477062,87.1640625 349.315604,87.1640625 494.109375,87.1640625" id="Path-2-Copy-2" stroke="#F4E3AF" stroke-width="8" fill="none"></path>
                        <path d="M516.03125,76.2109375 C373.831151,79.5729167 302.731102,92.8763021 302.731102,116.121094 C302.731102,150.988281 291.626656,251.96875 318.078125,299.601563 C335.712438,331.356771 264.203323,311.5625 103.550781,240.21875 L55.9257812,76.2109375 L516.03125,76.2109375 Z" id="Path-7" stroke="none" fill="#E8D8A7" fill-rule="evenodd"></path>
                        <path d="M57.5,79 L519.614788,79" id="Line-Copy" stroke="#E3D4A5" stroke-width="7" fill="none" stroke-linecap="round"></path>
                        <path d="M122.539062,169 C215.428391,207.520833 328.420579,207.520833 461.515625,169" id="Path-2-Copy" stroke="#DED0A5" stroke-width="8" fill="none" stroke-linecap="round"></path>
                        <path d="M98.59375,126.664062 C212.791667,140.799479 339.630208,140.799479 479.109375,126.664062" id="Path-2" stroke="#DED0A5" stroke-width="8" fill="none" stroke-linecap="round"></path>
                    </g>
                </g>
            </g>
        </g>
    </g>
</svg>